<?xml version="1.0" encoding="utf-8"?>
<?xml-stylesheet type="text/xsl" href="rss1.xsl"?>
<rss version="2.0" xmlns:atom="http://www.w3.org/2005/Atom" xmlns:content="http://purl.org/rss/1.0/modules/content/" xmlns:dc="http://purl.org/dc/elements/1.1/" xmlns:media="http://search.yahoo.com/mrss/">
<channel>
 <title>Getty</title>
 <link>http://www.gettyimg.com/</link>
 <atom:link href="http://www.gettyimg.com/" rel="self" type="application/rss+xml" />

 
                <item>
                <title><![CDATA[【Documentaries】WEB-DL - Xuxa, O Documentário (2023) 1080p GLBO (GLOBOPLAY) WEB-DL AAC2.0 (Brazilian Portuguese) x264-DASH]]></title>
                <link><![CDATA[https://sharemania.us/threads/xuxa-o-document%C3%A1rio-2023-1080p-glbo-globoplay-web-dl-aac2-0-brazilian-portuguese-x264-dash.240530/]]></link>
                <description><![CDATA[<article>
<blockquote class="messageText SelectQuoteContainer ugc baseHtml">
<span style="font-size: 22px"><b>Xuxa.O.Documentário.S01.1080p.GLBO.WEB-DL.AAC2.0.x264-DASH.mkv (Brazilian Portuguese) | MEGA (10.3 GB) | Season 1 | 5 Episodes | DASH</b></span><br>
<span style="font-size: 18px"><br>
Title: <b>Xuxa, O Documentário</b><br>
<br>
Language: <b><b>Portuguese (Brazil)</b></b><br>
<br>
Source:</span><b><b> <span style="font-size: 18px">GLOBOPLAY (BRAZIL)</span></b></b><br>
<br>
<div class="ToggleTriggerAnchor bbCodeSpoilerContainer">
<button type="button" class="button bbCodeSpoilerButton ToggleTrigger Tooltip JsOnly" data-target="> .SpoilerTarget"><span>Spoiler: <span class="SpoilerTitle">MediaInfo</span></span></button>
<div class="SpoilerTarget bbCodeSpoilerText">General<br>
Unique ID : 244849829446046542638564309156714454472 (0xB8345CA199AD21CA313B44A30D6F1DC8)<br>
Complete name : Xuxa.O.Documentário.S01.1080p.GLBO.WEB-DL.AAC2.0.x264-DASH\Xuxa.O.Documentário.S01E01.Supernova.1080p.GLBO.WEB-DL.AAC2.0.x264-DASH.mkv<br>
Format : Matroska<br>
Format version : Version 4<br>
File size : 2.04 GiB<br>
Duration : 59 min 27 s<br>
Overall bit rate : 4 922 kb/s<br>
Frame rate : 29.970 FPS<br>
Encoded date : 2024-03-20 18:53:18 UTC<br>
Writing application : mkvmerge v82.0 ('I'm The President') 64-bit<br>
Writing library : libebml v1.4.5 + libmatroska v1.7.1<br>
<br>
Video<br>
ID : 1<br>
Format : AVC<br>
Format/Info : Advanced Video Codec<br>
Format profile : High@L4<br>
Format settings : CABAC / 2 Ref Frames<br>
Format settings, CABAC : Yes<br>
Format settings, Reference frames : 2 frames<br>
Codec ID : V_MPEG4/ISO/AVC<br>
Duration : 59 min 27 s<br>
Bit rate : 4 660 kb/s<br>
Width : 1 920 pixels<br>
Height : 1 080 pixels<br>
Display aspect ratio : 16:9<br>
Frame rate mode : Constant<br>
Frame rate : 29.970 (30000/1001) FPS<br>
Color space : YUV<br>
Chroma subsampling : 4:2:0<br>
Bit depth : 8 bits<br>
Scan type : Progressive<br>
Bits/(Pixel*Frame) : 0.075<br>
Stream size : 1.94 GiB (95%)<br>
Writing library : x264 core 148<br>
Encoding settings : cabac=1 / ref=2 / deblock=1:0:0 / analyse=0x3:0x113 / me=hex / subme=4 / psy=1 / psy_rd=1.00:0.00 / mixed_ref=0 / me_range=16 / chroma_me=1 / trellis=1 / 8x8dct=1 / cqm=0 / deadzone=21,11 / fast_pskip=1 / chroma_qp_offset=0 / threads=24 / lookahead_threads=6 / sliced_threads=0 / nr=0 / decimate=1 / interlaced=0 / bluray_compat=0 / constrained_intra=0 / bframes=1 / b_pyramid=0 / b_adapt=1 / b_bias=0 / direct=1 / weightb=1 / open_gop=0 / weightp=1 / keyint=30 / keyint_min=16 / scenecut=0 / intra_refresh=0 / rc=2pass / mbtree=0 / bitrate=4660 / ratetol=1.0 / qcomp=0.60 / qpmin=0 / qpmax=69 / qpstep=4 / cplxblur=20.0 / qblur=0.5 / ip_ratio=1.40 / pb_ratio=1.30 / aq=1:1.00<br>
Default : Yes<br>
Forced : No<br>
<br>
Audio #1<br>
ID : 2<br>
Format : AAC LC<br>
Format/Info : Advanced Audio Codec Low Complexity<br>
Codec ID : A_AAC-2<br>
Duration : 59 min 27 s<br>
Bit rate : 128 kb/s<br>
Channel(s) : 2 channels<br>
Channel layout : L R<br>
Sampling rate : 44.1 kHz<br>
Frame rate : 43.066 FPS (1024 SPF)<br>
Compression mode : Lossy<br>
Stream size : 54.4 MiB (3%)<br>
Title : Portuguese<br>
Language : Portuguese<br>
Default : Yes<br>
Forced : No<br>
<br>
Audio #2<br>
ID : 3<br>
Format : AAC LC<br>
Format/Info : Advanced Audio Codec Low Complexity<br>
Codec ID : A_AAC-2<br>
Duration : 59 min 27 s<br>
Bit rate : 128 kb/s<br>
Channel(s) : 2 channels<br>
Channel layout : L R<br>
Sampling rate : 44.1 kHz<br>
Frame rate : 43.066 FPS (1024 SPF)<br>
Compression mode : Lossy<br>
Stream size : 54.4 MiB (3%)<br>
Title : Portuguese (description)<br>
Language : Portuguese<br>
Default : No<br>
Forced : No<br>
<br>
Text<br>
ID : 4<br>
Format : UTF-8<br>
Codec ID : S_TEXT/UTF8<br>
Codec ID/Info : UTF-8 Plain Text<br>
Duration : 59 min 27 s<br>
Bit rate : 112 b/s<br>
Frame rate : 0.349 FPS<br>
Count of elements : 1244<br>
Stream size : 49.2 KiB (0%)<br>
Title : Portuguese (caption)<br>
Language : Portuguese<br>
Default : No<br>
Forced : No</div>
</div><br>
<img src="https://i.imgur.com/tiQUqLp.jpeg" class="bbCodeImage LbImage" alt="[​IMG]" data-url="https://i.imgur.com/tiQUqLp.jpeg" style=""> <br>
<br>
<b><span style="font-size: 22px">Série documental percorre a trajetória de Xuxa, com acervo exclusivo, entrevistas inéditas e reencontros significativos.<br>
<br>
Screenshots:</span></b><br>
<img src="https://i.imgur.com/moohTos.png" class="bbCodeImage LbImage" alt="[​IMG]" data-url="https://i.imgur.com/moohTos.png" style=""> <br>
<br>
<b><span style="font-size: 22px"><br>
<b><span style="font-size: 26px">Download on MEGA:</span></b></span><br>
<span style="font-size: 18px">
<div class="bbCodeBlock bbCodeVfcHH HiddenContent">
<div class="attribution type">Hidden Content:</div>
<blockquote>You must reply before you can see the hidden data contained here.</blockquote>
</div></span></b>
<div class="messageTextEndMarker">&nbsp;</div>
</blockquote>
</article>]]></description>
                <author><![CDATA[dash]]></author>
                </item>

                
                <item>
                <title><![CDATA[【Requests】[REQ VID] - Mariah Carey - x3 [Request Lives]]]></title>
                <link><![CDATA[https://sharemania.us/threads/mariah-carey-x3-request-lives.240529/]]></link>
                <description><![CDATA[<article>
<blockquote class="messageText SelectQuoteContainer ugc baseHtml">
<span style="font-family: 'Arial'"><span style="font-size: 15px">Hello!!<br>
I'm looking for 3 Mariah lives.<br>
Help me pliz.<br>
<br>
I'll Be Lovin' U Long Time (MTV Video Music Awards Japan 2008.05.31) 1080i MPEG2.ts<br>
I'm that Chick (Fashion Rocks 2008).mpg 525.17MB VideoMan<br>
We Belong Together (MUSIC STATION 2005-04-01) 1080i MPEG2.ts<br>
</span></span>
<div class="messageTextEndMarker">&nbsp;</div>
</blockquote>
</article>]]></description>
                <author><![CDATA[SCANDAL]]></author>
                </item>

                </channel></rss>